{
  "title": "Child.44.HDRip.MIC-AUDIO.XVID.AC3.Hive-CM8",
  "uid": 12118466,
  "size": 1750110947,
  "categoryP": "video",
  "categoryS": "movies",
  "magnet": "?xt=urn:btih:97cf79d61a3a95f249d9dd12bce1bfaf16f55d7d&amp;dn=Child.44.HDRip.MIC-AUDIO.XVID.AC3.Hive-CM8&amp;tr=udp%3A%2F%2Ftracker.openbittorrent.com%3A80&amp;tr=udp%3A%2F%2Fopen.demonii.com%3A1337&amp;tr=udp%3A%2F%2Ftracker.coppersurfer.tk%3A6969&amp;tr=udp%3A%2F%2Fexodus.desync.com%3A6969",
  "seeders": 112,
  "leechers": 34,
  "uploader": "xxxlavalxxx",
  "files": 4,
  "time": 1436781488,
  "description": " &lt;a href=&quot;http://extraimago.com/image/cC9&quot; rel=&quot;nofollow&quot; target=&quot;_NEW&quot;&gt;http://extraimago.com/image/cC9&lt;/a&gt;\n &lt;a href=&quot;\nhttp://www.imdb.com/title/tt1014763/&quot; rel=&quot;nofollow&quot; target=&quot;_NEW&quot;&gt;\nhttp://www.imdb.com/title/tt1014763/&lt;/a&gt;\n\n\nA disgraced member of the military police investigates a series of nasty child murders during the Stalin-era Soviet Union.\n\nDirector: Daniel Espinosa\nWriters: Richard Price (screenplay), Tom Rob Smith (novel)\nStars: Tom Hardy, Gary Oldman, Noomi Rapace \nGenres: Drama | Thriller\nCountry: USA | UK | Czech Republic | Romania | Russia\nLanguage: English\n\n\nThx Hive\n\nCM8 Doing It Right The First Time\n\nSources\nVideo: Russian 1080p Web-DL\nAudio: English Cam Audio\nthx m8\n\nNotes:\nhad the cam audio since a month ago, for a cam audio its good\nthere was an italian cam out a month ago, invested hours on it, but it was too dark to use, so i waited\ndoing a release now with the web-dl looks a lot better\nretail is in 3 weeks, so if you wanna watch it earlier here is your chance\n\nEncode:\neven the web-dl is quite dark, brightened it up without going over,and added sharpness\nfor the audio is was quite nice, cleaned as needed and lipsynced to my video\ntried entering it into a the russian 5.1 track but music would have been louder as the voices, so i left it stereo\n\nits an ok-watch\nenjoy\n\nVideo: 720x400 @bitrate 1500 2pass\nAudio: English Cam Stereo 2.0\nSample: yes included\n\nPS:\nstill need HDCams, can you get some (magic mike-antman-pixels....)? msg me\n &lt;a href=&quot;\nhttp://www.imdb.com/title/tt1014763/&quot; rel=&quot;nofollow&quot; target=&quot;_NEW&quot;&gt;\nhttp://www.imdb.com/title/tt1014763/&lt;/a&gt;\n\nGeneral\nComplete name: Child.44.HDRip.MIC-AUDIO.XVID.AC3.Hive-CM8.avi\nFormat: AVI\nFormat/Info: Audio Video Interleave\nFile size: 1.62 GiB\nDuration: 2h 11mn\nOverall bit rate: 1 765 Kbps\nWriting application: Nandub v1.0rc2\nWriting library: Nandub build 1853/release\n\nVideo\nID: 0\nFormat: MPEG-4 Visual\nFormat profile: Advanced Simple@L5\nFormat settings, BVOP: 2\nFormat settings, QPel: Yes\nFormat settings, GMC: No warppoints\nFormat settings, Matrix: Default (H.263)\nMuxing mode: Packed bitstream\nCodec ID: XVID\nCodec ID/Hint: XviD\nDuration: 2h 11mn\nBit rate: 1 499 Kbps\nWidth: 720 pixels\nHeight: 400 pixels\nDisplay aspect ratio: 16:9\nFrame rate: 25.000 fps\nColor space: YUV\nChroma subsampling: 4:2:0\nBit depth: 8 bits\nScan type: Progressive\nCompression mode: Lossy\nBits/(Pixel*Frame): 0.208\nStream size: 1.38 GiB (85%)\nWriting library: XviD 1.2.1 (UTC 2008-12-04)\n\nAudio\nID: 1\nFormat: AC-3\nFormat/Info: Audio Coding 3\nMode extension: CM (complete main)\nFormat settings, Endianness: Big\nCodec ID: 2000\nDuration: 2h 11mn\nBit rate mode: Constant\nBit rate: 256 Kbps\nChannel(s): 2 channels\nChannel positions: Front: L R\nSampling rate: 48.0 KHz\nBit depth: 16 bits\nCompression mode: Lossy\nStream size: 241 MiB (15%)\nAlignment: Split accross interleaves\nInterleave, duration: 40 ms (1.00 video frame)\nInterleave, preload duration: 500 ms\n\n &lt;a href=&quot;\nhttp://extraimago.com/image/1nl&quot; rel=&quot;nofollow&quot; target=&quot;_NEW&quot;&gt;\nhttp://extraimago.com/image/1nl&lt;/a&gt; &lt;a href=&quot;\nhttp://extraimago.com/image/1nI&quot; rel=&quot;nofollow&quot; target=&quot;_NEW&quot;&gt;\nhttp://extraimago.com/image/1nI&lt;/a&gt; &lt;a href=&quot;\nhttp://extraimago.com/image/1nd&quot; rel=&quot;nofollow&quot; target=&quot;_NEW&quot;&gt;\nhttp://extraimago.com/image/1nd&lt;/a&gt; &lt;a href=&quot;\nhttp://extraimago.com/image/1nh&quot; rel=&quot;nofollow&quot; target=&quot;_NEW&quot;&gt;\nhttp://extraimago.com/image/1nh&lt;/a&gt; &lt;a href=&quot;\nhttp://extraimago.com/image/1nb&quot; rel=&quot;nofollow&quot; target=&quot;_NEW&quot;&gt;\nhttp://extraimago.com/image/1nb&lt;/a&gt;",
  "parsed": {
    "xt": "urn:btih:97cf79d61a3a95f249d9dd12bce1bfaf16f55d7d",
    "dn": "Child.44.HDRip.MIC-AUDIO.XVID.AC3.Hive-CM8",
    "tr": [
      "udp://exodus.desync.com:6969",
      "udp://open.demonii.com:1337",
      "udp://tracker.coppersurfer.tk:6969",
      "udp://tracker.openbittorrent.com:80"
    ],
    "infoHash": "97cf79d61a3a95f249d9dd12bce1bfaf16f55d7d",
    "infoHashBuffer": {
      "type": "Buffer",
      "data": [
        151,
        207,
        121,
        214,
        26,
        58,
        149,
        242,
        73,
        217,
        221,
        18,
        188,
        225,
        191,
        175,
        22,
        245,
        93,
        125
      ]
    },
    "name": "Child.44.HDRip.MIC-AUDIO.XVID.AC3.Hive-CM8",
    "announce": [
      "udp://exodus.desync.com:6969",
      "udp://open.demonii.com:1337",
      "udp://tracker.coppersurfer.tk:6969",
      "udp://tracker.openbittorrent.com:80"
    ],
    "urlList": []
  },
  "previous": 146,
  "peers": 28,
  "last_updated": "2016-12-25T08:35:51.662Z"
}